<?xml version="1.0" standalone="no"?>
<!DOCTYPE svg PUBLIC "-//W3C//DTD SVG 20010904//EN"
 "http://www.w3.org/TR/2001/REC-SVG-20010904/DTD/svg10.dtd">
<svg version="1.0" xmlns="http://www.w3.org/2000/svg"
 width="124.000000pt" height="118.000000pt" viewBox="0 0 124.000000 118.000000"
 preserveAspectRatio="xMidYMid meet">

<g transform="translate(0.000000,118.000000) scale(0.100000,-0.100000)"
fill="#000000" stroke="none">
<path d="M358 587 c-109 -265 -200 -490 -204 -500 -6 -16 -2 -18 36 -15 l43 3
203 494 c112 272 204 496 204 498 0 2 -19 3 -42 3 l-43 -1 -197 -482z"/>
<path d="M828 587 c-109 -265 -200 -490 -204 -500 -6 -16 -2 -18 36 -15 l43 3
203 494 c112 272 204 496 204 498 0 2 -19 3 -42 3 l-43 -1 -197 -482z"/>
</g>
</svg>
