<?xml version="1.0" standalone="no"?>
<!DOCTYPE svg PUBLIC "-//W3C//DTD SVG 20010904//EN"
 "http://www.w3.org/TR/2001/REC-SVG-20010904/DTD/svg10.dtd">
<svg version="1.0" xmlns="http://www.w3.org/2000/svg"
 width="660.000000pt" height="660.000000pt" viewBox="0 0 660.000000 660.000000"
 preserveAspectRatio="xMidYMid meet">
<metadata>
Created by potrace 1.14, written by Peter Selinger 2001-2017
</metadata>
<g transform="translate(0.000000,660.000000) scale(0.100000,-0.100000)"
fill="#000000" stroke="none">
<path d="M3040 5852 l-86 -3 -88 -217 c-121 -297 -156 -382 -171 -417 -7 -16
-34 -82 -60 -145 -26 -63 -52 -126 -58 -140 -5 -14 -11 -29 -13 -35 -3 -10
-107 -265 -123 -300 -5 -11 -28 -67 -51 -125 -23 -58 -49 -121 -58 -140 -8
-19 -15 -41 -15 -47 0 -7 -4 -13 -9 -13 -4 0 -8 -4 -8 -9 0 -5 -5 -22 -12 -38
-6 -15 -12 -30 -13 -33 -1 -3 -7 -18 -14 -35 -17 -42 -177 -434 -192 -470 -7
-16 -13 -32 -13 -35 -1 -3 -16 -39 -34 -81 -38 -92 -50 -122 -49 -129 0 -3 -6
-16 -13 -30 -8 -14 -15 -27 -15 -30 -1 -3 -6 -16 -12 -30 -6 -14 -23 -54 -37
-90 -15 -36 -31 -74 -36 -85 -5 -11 -33 -81 -64 -155 -30 -74 -60 -148 -67
-165 -7 -16 -13 -32 -14 -35 -1 -3 -6 -16 -12 -30 -6 -14 -68 -164 -137 -335
-132 -323 -171 -419 -255 -622 -28 -68 -51 -125 -51 -127 0 -2 -10 -26 -22
-53 -12 -26 -22 -50 -23 -53 -1 -3 -7 -18 -14 -35 -7 -16 -28 -69 -47 -116
-19 -48 -45 -112 -59 -143 -14 -31 -25 -57 -24 -59 1 -4 -90 -229 -126 -312
-7 -16 -18 -43 -23 -60 -6 -16 -34 -86 -61 -155 -61 -150 -63 -168 -18 -177
17 -4 41 -7 52 -6 18 0 177 10 293 17 50 4 60 15 95 107 14 35 31 78 38 94 7
17 13 32 14 35 2 6 18 44 51 118 13 29 24 56 24 59 0 7 87 221 121 298 9 22
47 114 84 205 90 223 114 281 125 305 32 70 70 169 70 181 0 8 5 14 10 14 6 0
10 7 10 15 0 8 9 37 21 63 36 83 46 106 74 177 14 39 33 84 40 100 31 67 55
128 55 141 0 8 4 14 8 14 5 0 9 6 9 13 0 6 12 38 27 70 14 31 22 57 18 57 -4
0 -2 4 3 8 6 4 21 34 34 67 77 193 186 457 207 502 13 28 24 54 24 57 0 6 133
331 161 393 10 23 19 46 19 51 0 5 6 22 14 38 8 16 51 119 96 229 45 110 91
219 101 242 10 23 19 46 19 51 0 5 6 22 14 38 8 16 37 85 66 154 28 69 55 134
60 145 13 28 43 99 45 105 7 27 21 63 38 100 12 25 22 47 22 50 1 3 7 18 13
33 7 16 12 30 12 31 0 2 10 25 22 52 12 27 23 54 24 59 3 10 54 137 78 190 7
17 26 62 41 100 15 39 33 84 41 100 7 17 22 55 34 85 12 30 26 61 32 67 6 7 8
13 5 13 -6 0 8 38 38 105 20 45 64 155 62 156 -24 10 -224 16 -367 11z"/>
<path d="M5523 5852 c-40 -2 -73 -7 -73 -11 0 -5 -8 -26 -17 -47 -9 -22 -17
-41 -18 -44 -1 -3 -6 -16 -12 -30 -13 -29 -105 -255 -169 -415 -25 -60 -49
-119 -54 -130 -5 -11 -25 -60 -45 -110 -20 -49 -45 -110 -56 -134 -12 -25 -22
-52 -24 -61 -2 -9 -12 -36 -23 -61 -12 -24 -45 -105 -75 -179 -93 -230 -128
-314 -137 -335 -5 -11 -29 -69 -54 -130 -24 -60 -51 -126 -59 -145 -24 -58
-30 -75 -32 -80 -1 -3 -9 -23 -19 -45 -10 -22 -19 -44 -20 -50 -1 -5 -10 -27
-19 -49 -9 -21 -17 -40 -17 -42 0 -2 -8 -23 -19 -47 -10 -23 -29 -67 -41 -97
-12 -30 -28 -68 -35 -85 -8 -16 -48 -115 -90 -220 -116 -288 -185 -455 -207
-505 -11 -25 -26 -61 -33 -80 -7 -19 -38 -96 -69 -170 -31 -74 -56 -141 -56
-147 0 -7 -4 -13 -10 -13 -5 0 -9 -3 -8 -7 1 -9 1 -9 -47 -128 -18 -44 -54
-132 -80 -195 -25 -63 -51 -126 -57 -140 -6 -14 -14 -34 -19 -45 -4 -11 -40
-99 -80 -195 -39 -96 -82 -202 -94 -235 -23 -59 -154 -382 -179 -440 -17 -39
-41 -99 -42 -105 0 -3 -5 -16 -11 -30 -6 -14 -27 -65 -47 -115 -20 -49 -41
-97 -46 -106 -18 -34 -22 -85 -7 -97 17 -15 87 -17 222 -8 168 12 187 14 195
23 13 14 70 150 70 167 0 9 5 16 10 16 6 0 10 8 10 18 0 10 3 22 8 26 4 4 7
11 8 14 0 4 5 18 11 32 6 14 43 104 82 200 40 96 78 189 86 207 8 17 15 34 15
38 0 3 9 25 19 49 11 23 21 48 23 56 2 8 5 17 8 20 3 3 32 73 65 155 33 83 64
153 68 156 5 3 8 9 8 13 -1 10 117 308 159 401 5 11 36 88 70 170 76 188 74
182 95 230 10 22 26 60 35 85 32 82 172 425 178 435 4 6 7 15 8 20 1 6 11 30
22 55 11 25 30 70 42 100 12 30 31 74 41 97 11 23 19 49 19 57 0 9 5 16 11 16
5 0 8 4 5 8 -3 5 3 24 13 43 10 19 35 79 57 134 21 55 43 103 49 107 5 4 6 8
1 8 -5 0 -4 6 2 13 6 6 11 15 11 19 1 5 9 27 18 50 10 24 17 46 15 51 -1 4 2
7 8 7 5 0 10 6 10 12 0 12 94 248 165 413 8 17 34 82 59 145 26 63 51 124 56
135 8 18 23 53 105 255 13 30 44 107 69 170 26 63 56 134 67 157 10 24 19 46
19 49 0 3 6 20 14 37 8 18 44 106 81 197 37 91 75 184 86 207 10 24 19 46 19
49 0 3 7 20 15 37 7 18 23 56 34 85 l19 52 -23 6 c-26 6 -256 10 -362 6z"/>
</g>
</svg>
